<mxfile host="app.diagrams.net" modified="2020-10-23T08:41:22.785Z" agent="5.0 (X11)" etag="fuv6m5ohgqaPUQuxH06T" version="13.8.1" type="github">
  <diagram id="U4RRDcylGkdC7Ly2OUhQ" name="Page-1">
    <mxGraphModel dx="1137" dy="650" grid="1" gridSize="10" guides="1" tooltips="1" connect="1" arrows="1" fold="1" page="1" pageScale="1" pageWidth="850" pageHeight="1100" math="0" shadow="0">
      <root>
        <mxCell id="0" />
        <mxCell id="1" parent="0" />
        <mxCell id="EKdELdQXOBPCtrRxAm0l-20" style="edgeStyle=none;rounded=0;orthogonalLoop=1;jettySize=auto;html=1;" edge="1" parent="1" source="EKdELdQXOBPCtrRxAm0l-1" target="EKdELdQXOBPCtrRxAm0l-2">
          <mxGeometry relative="1" as="geometry" />
        </mxCell>
        <mxCell id="EKdELdQXOBPCtrRxAm0l-26" style="edgeStyle=none;rounded=0;orthogonalLoop=1;jettySize=auto;html=1;entryX=0.5;entryY=1;entryDx=0;entryDy=0;" edge="1" parent="1" source="EKdELdQXOBPCtrRxAm0l-1" target="EKdELdQXOBPCtrRxAm0l-18">
          <mxGeometry relative="1" as="geometry" />
        </mxCell>
        <mxCell id="EKdELdQXOBPCtrRxAm0l-1" value="User" style="html=1;strokeColor=none;fillColor=#0079D6;labelPosition=center;verticalLabelPosition=middle;verticalAlign=top;align=center;fontSize=12;outlineConnect=0;spacingTop=-6;fontColor=#FFFFFF;shape=mxgraph.sitemap.user;" vertex="1" parent="1">
          <mxGeometry x="40" y="245" width="120" height="80" as="geometry" />
        </mxCell>
        <mxCell id="EKdELdQXOBPCtrRxAm0l-13" style="edgeStyle=none;rounded=0;orthogonalLoop=1;jettySize=auto;html=1;entryX=0;entryY=0.5;entryDx=0;entryDy=0;entryPerimeter=0;" edge="1" parent="1" source="EKdELdQXOBPCtrRxAm0l-2" target="EKdELdQXOBPCtrRxAm0l-3">
          <mxGeometry relative="1" as="geometry" />
        </mxCell>
        <mxCell id="EKdELdQXOBPCtrRxAm0l-14" style="edgeStyle=none;rounded=0;orthogonalLoop=1;jettySize=auto;html=1;entryX=0;entryY=0.5;entryDx=0;entryDy=0;entryPerimeter=0;" edge="1" parent="1" source="EKdELdQXOBPCtrRxAm0l-2" target="EKdELdQXOBPCtrRxAm0l-4">
          <mxGeometry relative="1" as="geometry" />
        </mxCell>
        <mxCell id="EKdELdQXOBPCtrRxAm0l-15" style="edgeStyle=none;rounded=0;orthogonalLoop=1;jettySize=auto;html=1;entryX=0;entryY=0.5;entryDx=0;entryDy=0;entryPerimeter=0;" edge="1" parent="1" source="EKdELdQXOBPCtrRxAm0l-2" target="EKdELdQXOBPCtrRxAm0l-5">
          <mxGeometry relative="1" as="geometry" />
        </mxCell>
        <mxCell id="EKdELdQXOBPCtrRxAm0l-16" style="edgeStyle=none;rounded=0;orthogonalLoop=1;jettySize=auto;html=1;entryX=0;entryY=0.5;entryDx=0;entryDy=0;entryPerimeter=0;" edge="1" parent="1" source="EKdELdQXOBPCtrRxAm0l-2" target="EKdELdQXOBPCtrRxAm0l-6">
          <mxGeometry relative="1" as="geometry" />
        </mxCell>
        <mxCell id="EKdELdQXOBPCtrRxAm0l-17" style="edgeStyle=none;rounded=0;orthogonalLoop=1;jettySize=auto;html=1;entryX=0;entryY=0.5;entryDx=0;entryDy=0;entryPerimeter=0;" edge="1" parent="1" source="EKdELdQXOBPCtrRxAm0l-2" target="EKdELdQXOBPCtrRxAm0l-7">
          <mxGeometry relative="1" as="geometry" />
        </mxCell>
        <mxCell id="EKdELdQXOBPCtrRxAm0l-2" value="API Gateway" style="outlineConnect=0;dashed=0;verticalLabelPosition=bottom;verticalAlign=top;align=center;html=1;shape=mxgraph.aws3.api_gateway;fillColor=#D9A741;gradientColor=none;" vertex="1" parent="1">
          <mxGeometry x="260" y="255" width="56.5" height="60" as="geometry" />
        </mxCell>
        <mxCell id="EKdELdQXOBPCtrRxAm0l-3" value="Availaibility" style="html=1;strokeColor=none;fillColor=#0079D6;labelPosition=center;verticalLabelPosition=middle;verticalAlign=top;align=center;fontSize=12;outlineConnect=0;spacingTop=-6;fontColor=#FFFFFF;shape=mxgraph.sitemap.services;" vertex="1" parent="1">
          <mxGeometry x="520" y="10" width="120" height="70" as="geometry" />
        </mxCell>
        <mxCell id="EKdELdQXOBPCtrRxAm0l-4" value="Quick Count" style="html=1;strokeColor=none;fillColor=#0079D6;labelPosition=center;verticalLabelPosition=middle;verticalAlign=top;align=center;fontSize=12;outlineConnect=0;spacingTop=-6;fontColor=#FFFFFF;shape=mxgraph.sitemap.services;" vertex="1" parent="1">
          <mxGeometry x="520" y="130" width="120" height="70" as="geometry" />
        </mxCell>
        <mxCell id="EKdELdQXOBPCtrRxAm0l-5" value="Ticketing" style="html=1;strokeColor=none;fillColor=#0079D6;labelPosition=center;verticalLabelPosition=middle;verticalAlign=top;align=center;fontSize=12;outlineConnect=0;spacingTop=-6;fontColor=#FFFFFF;shape=mxgraph.sitemap.services;" vertex="1" parent="1">
          <mxGeometry x="520" y="250" width="120" height="70" as="geometry" />
        </mxCell>
        <mxCell id="EKdELdQXOBPCtrRxAm0l-6" value="Battery Backup Time" style="html=1;strokeColor=none;fillColor=#0079D6;labelPosition=center;verticalLabelPosition=middle;verticalAlign=top;align=center;fontSize=12;outlineConnect=0;spacingTop=-6;fontColor=#FFFFFF;shape=mxgraph.sitemap.services;" vertex="1" parent="1">
          <mxGeometry x="520" y="370" width="120" height="70" as="geometry" />
        </mxCell>
        <mxCell id="EKdELdQXOBPCtrRxAm0l-7" value="Auth" style="html=1;strokeColor=none;fillColor=#0079D6;labelPosition=center;verticalLabelPosition=middle;verticalAlign=top;align=center;fontSize=12;outlineConnect=0;spacingTop=-6;fontColor=#FFFFFF;shape=mxgraph.sitemap.services;" vertex="1" parent="1">
          <mxGeometry x="520" y="490" width="120" height="70" as="geometry" />
        </mxCell>
        <mxCell id="EKdELdQXOBPCtrRxAm0l-27" style="edgeStyle=none;rounded=0;orthogonalLoop=1;jettySize=auto;html=1;entryX=0.5;entryY=0;entryDx=0;entryDy=0;entryPerimeter=0;" edge="1" parent="1" source="EKdELdQXOBPCtrRxAm0l-18" target="EKdELdQXOBPCtrRxAm0l-1">
          <mxGeometry relative="1" as="geometry" />
        </mxCell>
        <mxCell id="EKdELdQXOBPCtrRxAm0l-18" value="" style="strokeColor=#dddddd;shadow=1;strokeWidth=1;rounded=1;absoluteArcSize=1;arcSize=2;" vertex="1" parent="1">
          <mxGeometry x="240" y="10" width="150" height="80" as="geometry" />
        </mxCell>
        <mxCell id="EKdELdQXOBPCtrRxAm0l-19" value="Frontend&#xa;Platform Services" style="dashed=0;connectable=0;html=1;fillColor=#757575;strokeColor=none;shape=mxgraph.gcp2.frontend_platform_services;part=1;labelPosition=right;verticalLabelPosition=middle;align=left;verticalAlign=middle;spacingLeft=5;fontSize=12;" vertex="1" parent="EKdELdQXOBPCtrRxAm0l-18">
          <mxGeometry y="0.5" width="32" height="32" relative="1" as="geometry">
            <mxPoint x="5" y="-16" as="offset" />
          </mxGeometry>
        </mxCell>
        <mxCell id="EKdELdQXOBPCtrRxAm0l-29" style="edgeStyle=none;rounded=0;orthogonalLoop=1;jettySize=auto;html=1;entryX=1;entryY=0.5;entryDx=0;entryDy=0;entryPerimeter=0;" edge="1" parent="1" source="EKdELdQXOBPCtrRxAm0l-28" target="EKdELdQXOBPCtrRxAm0l-7">
          <mxGeometry relative="1" as="geometry" />
        </mxCell>
        <mxCell id="EKdELdQXOBPCtrRxAm0l-30" style="edgeStyle=none;rounded=0;orthogonalLoop=1;jettySize=auto;html=1;entryX=1;entryY=0.5;entryDx=0;entryDy=0;entryPerimeter=0;" edge="1" parent="1" source="EKdELdQXOBPCtrRxAm0l-28" target="EKdELdQXOBPCtrRxAm0l-6">
          <mxGeometry relative="1" as="geometry" />
        </mxCell>
        <mxCell id="EKdELdQXOBPCtrRxAm0l-31" style="edgeStyle=none;rounded=0;orthogonalLoop=1;jettySize=auto;html=1;entryX=1;entryY=0.5;entryDx=0;entryDy=0;entryPerimeter=0;" edge="1" parent="1" source="EKdELdQXOBPCtrRxAm0l-28" target="EKdELdQXOBPCtrRxAm0l-5">
          <mxGeometry relative="1" as="geometry" />
        </mxCell>
        <mxCell id="EKdELdQXOBPCtrRxAm0l-32" style="edgeStyle=none;rounded=0;orthogonalLoop=1;jettySize=auto;html=1;entryX=1;entryY=0.5;entryDx=0;entryDy=0;entryPerimeter=0;" edge="1" parent="1" source="EKdELdQXOBPCtrRxAm0l-28" target="EKdELdQXOBPCtrRxAm0l-4">
          <mxGeometry relative="1" as="geometry" />
        </mxCell>
        <mxCell id="EKdELdQXOBPCtrRxAm0l-33" style="edgeStyle=none;rounded=0;orthogonalLoop=1;jettySize=auto;html=1;entryX=1;entryY=0.5;entryDx=0;entryDy=0;entryPerimeter=0;" edge="1" parent="1" source="EKdELdQXOBPCtrRxAm0l-28" target="EKdELdQXOBPCtrRxAm0l-3">
          <mxGeometry relative="1" as="geometry" />
        </mxCell>
        <mxCell id="EKdELdQXOBPCtrRxAm0l-28" value="Mongodb" style="dashed=0;outlineConnect=0;html=1;align=center;labelPosition=center;verticalLabelPosition=bottom;verticalAlign=top;shape=mxgraph.webicons.mongodb;gradientColor=#DFDEDE" vertex="1" parent="1">
          <mxGeometry x="748" y="233.8" width="102.4" height="102.4" as="geometry" />
        </mxCell>
        <mxCell id="EKdELdQXOBPCtrRxAm0l-40" value="Cache node" style="outlineConnect=0;fontColor=#232F3E;gradientColor=none;strokeColor=#232F3E;fillColor=#ffffff;dashed=0;verticalLabelPosition=bottom;verticalAlign=top;align=center;html=1;fontSize=12;fontStyle=0;aspect=fixed;shape=mxgraph.aws4.resourceIcon;resIcon=mxgraph.aws4.cache_node;rotation=-45;" vertex="1" parent="1">
          <mxGeometry x="335.86" y="130" width="40" height="40" as="geometry" />
        </mxCell>
      </root>
    </mxGraphModel>
  </diagram>
</mxfile>
